<svg id="Layer_1" data-name="Layer 1" xmlns="http://www.w3.org/2000/svg" viewBox="0 0 126.29 115.69"><defs><style>.cls-1{fill:#7a7979;stroke:#3a3a3a;stroke-width:4.89px;}.cls-1,.cls-4{stroke-linejoin:round;}.cls-2{fill:#3a3a3a;}.cls-3{fill:#efefef;}.cls-4{fill:none;stroke:#3dce20;stroke-linecap:round;stroke-width:7px;}</style></defs><path class="cls-1" d="M115.45,2.45H10.85a8.45,8.45,0,0,0-8.4,8.4v94a8.45,8.45,0,0,0,8.4,8.4h104.6a8.45,8.45,0,0,0,8.4-8.4v-94a8.39,8.39,0,0,0-8.38-8.4Z" transform="translate(0 0)"/><circle class="cls-2" cx="15.94" cy="15.65" r="4.7"/><circle class="cls-2" cx="29.25" cy="15.65" r="4.7"/><circle class="cls-2" cx="42.45" cy="15.65" r="4.7"/><path class="cls-3" d="M88.26,78.42A2.79,2.79,0,0,0,85.71,80h0A26.86,26.86,0,1,1,88.63,59.7h5.69a32.46,32.46,0,1,0-3.54,22.44h0A2.41,2.41,0,0,0,91.05,81,2.69,2.69,0,0,0,88.26,78.42Z" transform="translate(0 0)"/><polyline class="cls-4" points="85.19 58.18 92.03 62.26 96.01 55.58"/><polyline class="cls-4" points="61.7 50.34 61.7 66.3 72.64 73.44"/></svg>